<svg width="271" height="48" viewBox="0 0 271 48" fill="none" xmlns="http://www.w3.org/2000/svg">
<path d="M68.834 42.2574V38.1893H69.35V42.2364C69.35 44.0026 70.1985 44.8301 71.6759 44.8301C73.1518 44.8301 73.9928 43.9966 73.9928 42.2364V38.1893H74.5073V42.2574C74.5073 44.2734 73.4241 45.304 71.6654 45.304C69.9052 45.304 68.834 44.2749 68.834 42.2574ZM82.8075 38.3548V45.307H82.3892L77.6532 39.2741V45.307H77.1462V38.3563H77.5734L82.3095 44.3877V38.3548H82.8075ZM85.4734 38.3548H85.9789V44.8436H89.9853V45.301H85.4719L85.4734 38.3548ZM91.5334 38.3548H92.0404V45.307H91.5334V38.3548ZM101.282 45.301L101.273 39.3583L98.3606 44.3772H98.1124L95.1998 39.3719V45.2949H94.7033V38.3443H95.129L98.2403 43.7092L101.352 38.3428H101.77L101.78 45.2949L101.282 45.301ZM104.449 38.3548H104.956V45.307H104.449V38.3548ZM108.951 38.8122H106.443V38.3563H111.958V38.8122H109.452V45.301H108.945L108.951 38.8122ZM118.26 44.8436V45.301H113.453V38.3503H118.107V38.8047H113.96V41.5428H117.669V41.9896H113.96V44.8361L118.26 44.8436ZM120.354 38.3548H123.108C125.313 38.3548 126.806 39.8051 126.806 41.8317C126.806 43.8582 125.313 45.307 123.108 45.307H120.354V38.3563V38.3548ZM123.065 44.8436C125.033 44.8436 126.296 43.5919 126.296 41.8271C126.296 40.0639 125.033 38.8122 123.065 38.8122H120.858V44.8436H123.065ZM131.609 38.3548H132.121V44.8436H136.126V45.301H131.612L131.609 38.3548ZM137.671 38.3548H138.178V45.307H137.671V38.3548ZM141.357 38.8122V41.779H145.065V42.2349H141.357V45.301H140.85V38.3503H145.502V38.8047L141.357 38.8122ZM152.159 44.8436V45.301H147.36V38.3503H152.008V38.8047H147.861V41.5428H151.569V41.9896H147.861V44.8361L152.159 44.8436ZM156.457 42.4124H159.012V42.8592H156.457V42.4124ZM163.809 42.3507V38.3548H164.316V42.3326C164.316 44.0688 165.153 44.8812 166.603 44.8812C168.054 44.8812 168.879 44.0688 168.879 42.3326V38.3548H169.386V42.3492C169.386 44.3321 168.321 45.3446 166.6 45.3446C164.878 45.3446 163.809 44.3366 163.809 42.3492V42.3507ZM177.663 38.3548V45.307H177.244L172.508 39.2741V45.307H172.001V38.3563H172.429L177.165 44.3877V38.3548H177.663ZM180.333 38.3548H180.838V44.8436H184.845V45.301H180.331L180.333 38.3548ZM186.391 38.3548H186.898V45.307H186.391V38.3548ZM196.142 45.301L196.133 39.3583L193.219 44.3772H192.972L190.058 39.3719V45.2949H189.561V38.3443H189.989L193.1 43.7092L196.211 38.3428H196.629L196.64 45.2949L196.142 45.301ZM199.298 38.3548H199.805V45.307H199.298V38.3548ZM203.809 38.8122H201.302V38.3563H206.818V38.8122H204.311V45.301H203.806L203.809 38.8122ZM213.12 44.8436V45.301H208.319V38.3503H212.969V38.8047H208.826V41.5428H212.533V41.9896H208.826V44.8361L213.12 44.8436ZM215.214 38.3548H217.967C220.173 38.3548 221.665 39.8051 221.665 41.8317C221.665 43.8582 220.173 45.307 217.966 45.307H215.213V38.3563L215.214 38.3548ZM217.93 44.8436C219.899 44.8436 221.161 43.5919 221.161 41.8271C221.161 40.0639 219.897 38.8122 217.93 38.8122H215.724V44.8436H217.93ZM231.443 41.8587H231.929V44.457C231.303 45.0512 230.397 45.3491 229.446 45.3491C227.348 45.3491 225.805 43.8522 225.805 41.8287C225.805 39.8036 227.348 38.3052 229.455 38.3052C230.459 38.3052 231.342 38.6241 231.962 39.2575L231.643 39.596C231.037 39.0003 230.311 38.7731 229.467 38.7731C227.656 38.7731 226.316 40.082 226.316 41.8317C226.316 43.5814 227.658 44.8902 229.467 44.8902C230.203 44.8902 230.879 44.7097 231.446 44.2554L231.443 41.8587ZM233.723 41.8271C233.723 39.8142 235.263 38.3067 237.345 38.3067C239.427 38.3067 240.966 39.8051 240.966 41.8271C240.966 43.8507 239.416 45.3491 237.345 45.3491C235.273 45.3491 233.723 43.8416 233.723 41.8287V41.8271ZM240.441 41.8271C240.441 40.0714 239.109 38.7686 237.342 38.7686C235.571 38.7686 234.228 40.0669 234.228 41.8271C234.228 43.5874 235.56 44.8857 237.342 44.8857C239.122 44.8857 240.441 43.5829 240.441 41.8271ZM242.297 41.8271C242.297 39.8142 243.829 38.3067 245.919 38.3067C248.008 38.3067 249.541 39.8051 249.541 41.8271C249.541 43.8507 247.989 45.3491 245.919 45.3491C243.849 45.3491 242.297 43.8416 242.297 41.8287V41.8271ZM249.015 41.8271C249.015 40.0714 247.683 38.7686 245.916 38.7686C244.145 38.7686 242.801 40.0669 242.801 41.8271C242.801 43.5874 244.134 44.8857 245.916 44.8857C247.695 44.8857 249.015 43.5829 249.015 41.8271ZM251.535 38.3548H254.288C256.495 38.3548 257.985 39.8051 257.985 41.8317C257.985 43.8582 256.495 45.307 254.288 45.307H251.535V38.3563V38.3548ZM254.249 44.8436C256.217 44.8436 257.479 43.5919 257.479 41.8271C257.479 40.0639 256.217 38.8122 254.249 38.8122H252.042V44.8436H254.249ZM259.623 44.9339C259.689 44.7323 260.029 44.5848 260.428 44.5848C260.826 44.5848 261.166 44.7323 261.231 44.9339C261.166 45.1355 260.825 45.2829 260.428 45.2829C260.029 45.2829 259.689 45.1355 259.623 44.9339ZM259.858 38.3563H260.978L260.786 43.306H260.049L259.858 38.3563ZM72.8043 6.09908V15.7638H86.7341V19.1699H72.8028V30.3797H68.834V2.65234H88.4402V6.09757L72.8043 6.09908ZM110.824 9.38634V30.3797H107.211V27.2097C105.663 29.3882 103.044 30.6159 100.068 30.6159C94.6356 30.6159 91.0128 27.646 91.0128 21.4657V9.38483H94.8282V21.0309C94.8282 25.1501 96.8938 27.2097 100.505 27.2097C104.473 27.2097 107.013 24.7545 107.013 20.2381V9.38634H110.824ZM128.324 29.1505C127.173 30.142 125.426 30.6159 123.727 30.6159C119.48 30.6159 117.06 28.2809 117.06 24.0413V12.5141H113.481V9.38483H117.054V4.79922H120.863V9.38784H126.896V12.5171H120.863V23.8849C120.863 26.1416 122.054 27.4098 124.158 27.4098C125.233 27.4213 126.28 27.0722 127.134 26.4184L128.324 29.152V29.1505ZM150.945 9.38634V30.3797H147.334V27.2097C145.784 29.3882 143.167 30.6159 140.189 30.6159C134.758 30.6159 131.135 27.646 131.135 21.4657V9.38483H134.945V21.0309C134.945 25.1501 137.009 27.2097 140.621 27.2097C144.59 27.2097 147.129 24.7545 147.129 20.2381V9.38634H150.945ZM167.93 9.18775V12.8752C167.64 12.843 167.349 12.8299 167.058 12.8361C162.97 12.8361 160.429 15.3305 160.429 19.9266V30.3797H156.62V9.38634H160.271V12.9098C161.62 10.4545 164.24 9.18775 167.93 9.18775ZM189.758 21.1498H172.695C173.172 24.8342 176.146 27.288 180.315 27.288C182.775 27.288 184.839 26.4545 186.387 24.7545L188.49 27.2097C186.584 29.4349 183.686 30.6159 180.195 30.6159C173.408 30.6159 168.884 26.1401 168.884 19.883C168.884 13.6635 173.369 9.18624 179.441 9.18624C185.513 9.18624 189.84 13.5447 189.84 20.0003C189.832 20.3845 189.805 20.7681 189.76 21.1498H189.758ZM172.693 18.4161H186.185C185.79 14.8912 183.131 12.3968 179.439 12.3968C175.788 12.3968 173.09 14.8521 172.693 18.4146V18.4161Z" fill="#00AECE"/>
<path d="M217.919 2.65076V30.3811H214.666L197.997 9.7037V30.3811H194.028V2.65226H197.282L213.952 23.3281V2.65076H217.919ZM243.841 21.1497H226.776C227.251 24.8341 230.227 27.2879 234.396 27.2879C236.856 27.2879 238.92 26.4544 240.468 24.7544L242.571 27.2097C240.665 29.4348 237.769 30.6158 234.276 30.6158C227.49 30.6158 222.965 26.14 222.965 19.8829C222.965 13.6634 227.45 9.18616 233.522 9.18616C239.594 9.18616 243.919 13.5446 243.919 20.0003C243.915 20.3177 243.874 20.8006 243.841 21.1497ZM226.776 18.4161H240.269C239.872 14.8911 237.214 12.3967 233.522 12.3967C229.866 12.3967 227.165 14.852 226.77 18.4146H226.776V18.4161ZM260.226 29.1504C259.075 30.1419 257.328 30.6158 255.622 30.6158C251.375 30.6158 248.955 28.2808 248.955 24.0413V12.514H245.383V9.38475H248.955V4.79913H252.764V9.38776H258.797V12.517H252.764V23.8848C252.764 26.1415 253.955 27.4098 256.059 27.4098C257.134 27.4218 258.183 27.0727 259.036 26.4183L260.226 29.1519V29.1504Z" fill="#00AECE"/>
<path d="M263.9 3.02541H262.462V2.6508H265.772V3.02541H264.332V6.73392H263.9V3.02541ZM270.708 2.6508V6.73392H270.29V3.46923L268.683 6.21638H268.478L266.871 3.48578V6.73542H266.453V2.64929H266.81L268.585 5.67778L270.345 2.64929L270.708 2.6508Z" fill="#00AECE"/>
<path d="M11.5663 29.143V9.65867H27.4761L18.2296 0H2.31989C1.77482 0.00167047 1.24688 0.190616 0.824533 0.535178C0.402184 0.879741 0.111082 1.35899 0 1.89262V46.1029C0.111082 46.6365 0.402184 47.1157 0.824533 47.4603C1.24688 47.8049 1.77482 47.9938 2.31989 47.9955H11.5152V29.0874L11.5678 29.1415L11.5663 29.143Z" fill="#00AECE"/>
<path d="M45.6786 0H35.8875V18.4448L35.8303 18.3846L35.8875 18.6133H23.0785V25.8197H29.2287L36.6759 33.8685H23.0785V41.0494L29.7914 48H45.6786C46.2241 47.9982 46.7523 47.8088 47.1747 47.4637C47.5972 47.1185 47.888 46.6386 47.9985 46.1044V1.89262C47.8874 1.35899 47.5963 0.879741 47.1739 0.535178C46.7516 0.190616 46.2237 0.00167047 45.6786 0Z" fill="#00AECE"/>
<path d="M11.5663 9.65869V29.146L23.0785 41.0539V33.8746H36.6773L29.2287 25.8227H23.0785V18.6163H35.8875L35.8303 18.3876L27.476 9.6602L11.5663 9.65869Z" fill="#092C63"/>
</svg>
